<?xml version="1.0" standalone="no"?>
<!DOCTYPE svg PUBLIC "-//W3C//DTD SVG 20010904//EN"
 "http://www.w3.org/TR/2001/REC-SVG-20010904/DTD/svg10.dtd">
<svg version="1.0" xmlns="http://www.w3.org/2000/svg"
 width="32.000000pt" height="32.000000pt" viewBox="0 0 32.000000 32.000000"
 preserveAspectRatio="xMidYMid meet">

<g transform="translate(0.000000,32.000000) scale(0.100000,-0.100000)"
 stroke="none">
<path d="M112 265 c-23 -10 -34 -23 -38 -45 -4 -17 -11 -33 -15 -36 -12 -7
-11 -51 1 -74 12 -23 61 -40 118 -40 37 0 43 -2 33 -14 -21 -26 5 -26 29 -1
l23 25 -23 25 c-24 25 -50 25 -29 -1 10 -12 4 -14 -34 -14 -58 0 -96 17 -103
46 -9 35 3 45 34 28 40 -21 105 -18 133 6 l24 20 -25 21 c-21 18 -34 21 -88
16 -52 -4 -61 -2 -51 9 6 7 26 16 45 20 19 3 34 10 34 15 0 13 -30 10 -68 -6z
m125 -68 c11 -12 -4 -19 -50 -24 -50 -6 -99 13 -76 29 15 10 115 6 126 -5z"/>
</g>
</svg>
