<?xml version="1.0" standalone="no"?>
<svg version="1.0" xmlns="http://www.w3.org/2000/svg"
 width="80.000000pt" height="80.000000pt" viewBox="0 0 80.000000 80.000000"
 preserveAspectRatio="xMidYMid meet">
<metadata>
</metadata>
<g transform="translate(0.000000,80.000000) scale(0.100000,-0.100000)"
 stroke="none">
<path d="M100 565 l-45 -45 173 -173 172 -172 172 172 173 173 -48 47 -47 48
-125 -125 -125 -125 -123 123 c-67 67 -125 122 -128 122 -2 0 -25 -20 -49 -45z
m177 -127 l123 -123 125 125 125 125 22 -23 23 -22 -148 -148 -147 -147 -147
147 c-145 145 -147 147 -128 168 10 11 21 20 24 20 3 0 61 -55 128 -122z"/>
</g>
</svg>
