<?xml version="1.0" standalone="no"?>
<!DOCTYPE svg >
<svg version="1.0" xmlns="http://www.w3.org/2000/svg"
 width="512.000000pt" height="512.000000pt" viewBox="0 0 512.000000 512.000000"
 preserveAspectRatio="xMidYMid meet">
<metadata>
</metadata>
<g transform="translate(0.000000,512.000000) scale(0.100000,-0.100000)"
 stroke="none">
<path d="M3228 4029 c-16 -6 -341 -342 -782 -809 -415 -439 -769 -814 -785
-833 -27 -30 -41 -75 -118 -366 -94 -362 -95 -373 -38 -400 27 -13 47 -8 364
98 l336 111 740 780 c407 430 762 805 788 835 57 64 69 112 40 161 -25 41
-416 412 -448 424 -32 12 -61 12 -97 -1z m222 -316 c91 -86 165 -159 165 -163
0 -4 -36 -46 -81 -93 l-81 -85 -144 135 c-79 74 -157 147 -173 163 l-28 28 82
86 c46 47 86 86 89 86 3 0 80 -71 171 -157z m-276 -289 c91 -86 166 -160 166
-164 0 -6 -1030 -1099 -1194 -1268 -26 -26 -61 -41 -197 -85 l-165 -53 -52 45
-51 46 47 171 47 172 610 645 c336 356 613 646 617 647 3 0 81 -70 172 -156z"/>
<path d="M1260 1145 l0 -205 1300 0 1300 0 0 205 0 205 -1300 0 -1300 0 0
-205z"/>
</g>
</svg>
