<?xml version="1.0" standalone="no"?>
<svg version="1.0" xmlns="http://www.w3.org/2000/svg"
 width="512.000000pt" height="512.000000pt" viewBox="0 0 512.000000 512.000000"
 preserveAspectRatio="xMidYMid meet">

<g transform="translate(0.000000,512.000000) scale(0.100000,-0.100000)"
fill="#FFFFFF" stroke="none">
<path d="M2468 4459 c-315 -39 -605 -187 -821 -419 -172 -186 -282 -405 -333
-665 -24 -121 -24 -358 -1 -478 103 -521 476 -917 987 -1049 92 -24 145 -31
260 -35 209 -8 371 18 544 86 l71 28 590 -587 c325 -323 608 -599 630 -612
123 -76 276 -94 408 -49 223 76 361 325 303 548 -34 135 -27 127 -667 769
l-600 600 40 120 c133 398 75 820 -162 1174 -70 105 -253 285 -357 353 -161
104 -319 169 -491 202 -105 20 -300 27 -401 14z m272 -299 c121 -15 221 -44
327 -95 643 -311 782 -1164 271 -1661 -136 -133 -280 -215 -466 -266 -107 -30
-383 -32 -487 -4 -317 84 -562 286 -696 572 -68 143 -92 254 -92 424 0 99 5
168 16 218 119 526 604 876 1127 812z m1502 -2387 c595 -597 587 -588 575
-676 -9 -67 -71 -129 -144 -143 -77 -14 -83 -9 -672 580 l-553 553 111 111
c61 62 111 116 111 122 0 5 3 10 8 10 4 0 258 -251 564 -557z"/>
<path d="M80 2951 c-42 -22 -80 -83 -80 -130 0 -47 36 -105 80 -130 36 -20 50
-21 386 -21 331 0 350 1 390 21 46 22 84 82 84 133 0 46 -37 104 -80 126 -37
19 -58 20 -392 20 -325 0 -356 -1 -388 -19z"/>
<path d="M80 2311 c-42 -22 -80 -83 -80 -130 0 -47 36 -105 80 -130 37 -21 48
-21 506 -21 452 0 469 1 510 21 46 22 84 82 84 133 0 46 -37 104 -80 126 -38
19 -58 20 -512 20 -442 0 -476 -1 -508 -19z"/>
<path d="M80 1671 c-42 -22 -80 -83 -80 -130 0 -47 36 -105 80 -130 38 -21 42
-21 826 -21 775 0 788 0 830 21 45 21 84 81 84 129 0 45 -40 109 -81 130 -37
19 -62 20 -831 20 -753 0 -795 -1 -828 -19z"/>
<path d="M80 1031 c-42 -22 -80 -83 -80 -130 0 -47 36 -105 80 -130 l38 -21
1680 2 c1680 3 1681 3 1708 24 41 30 64 65 70 106 9 53 -25 118 -75 146 l-39
22 -1674 0 c-1610 0 -1675 -1 -1708 -19z"/>
</g>
</svg>
