<svg width="871" height="794" viewBox="0 0 871 794" fill="none" xmlns="http://www.w3.org/2000/svg">
<g id="Group">
<g id="logo-part-1">
<path id="Vector" d="M415.989 1.1047C391.389 3.2047 389.589 3.4047 387.489 4.4047C384.889 5.6047 373.589 8.4047 368.689 9.1047C366.689 9.4047 364.689 10.0047 364.389 10.5047C364.089 11.0047 362.789 11.4047 361.489 11.4047C360.189 11.4047 358.789 11.8047 358.489 12.4047C358.189 12.9047 356.789 13.4047 355.389 13.4047C352.889 13.4047 328.989 24.6047 322.889 28.6047C320.989 29.9047 318.189 31.6047 316.489 32.4047C314.889 33.2047 311.289 36.0047 308.489 38.6047C305.789 41.2047 302.989 43.4047 302.289 43.4047C299.589 43.4047 281.989 64.6047 281.989 67.9047C281.989 68.7047 281.589 69.5047 281.089 69.8047C277.389 72.1047 273.389 88.2047 274.289 97.4047C275.389 109.205 282.289 125.905 287.189 128.505C291.489 130.805 294.189 128.705 298.889 118.905C299.389 117.805 300.989 115.405 302.389 113.505C303.789 111.605 304.989 109.505 304.989 108.905C304.989 107.305 307.889 101.605 308.989 100.905C310.189 100.205 315.989 91.5047 315.989 90.5047C315.989 90.1047 317.389 88.5047 318.989 86.9047C320.689 85.3047 321.989 83.5047 321.989 82.9047C321.989 81.7047 341.389 62.5047 348.589 56.6047C353.589 52.5047 353.889 52.5047 363.089 51.9047C387.289 50.6047 458.689 50.0047 461.489 51.1047C463.889 51.9047 463.189 55.0047 460.289 56.9047C452.489 62.1047 432.589 83.4047 425.889 93.9047C420.589 102.305 404.989 134.105 404.989 136.605C404.989 137.305 404.089 139.405 402.989 141.205C401.889 143.005 400.989 145.805 400.989 147.405C400.989 149.005 400.589 150.505 400.089 150.805C399.589 151.105 398.989 153.105 398.589 155.105C397.289 163.905 396.689 166.405 395.889 167.005C395.389 167.305 394.989 169.005 394.989 170.905C394.989 172.805 394.589 174.605 393.989 174.905C392.089 176.105 393.089 177.905 396.789 179.905C401.089 182.105 414.089 183.505 434.489 183.705C448.989 183.905 488.889 180.405 493.289 178.605C494.889 177.905 497.589 177.405 499.389 177.405C501.289 177.405 504.689 176.705 506.989 175.905C509.289 175.105 512.289 174.405 513.589 174.405C514.889 174.405 515.989 173.905 515.989 173.405C515.989 172.805 517.489 172.405 519.389 172.405C521.289 172.405 523.089 172.005 523.389 171.505C523.789 171.005 526.289 170.005 528.989 169.305C531.789 168.605 533.989 167.705 533.989 167.205C533.989 166.805 534.789 166.405 535.689 166.405C537.989 166.405 561.989 154.405 561.989 153.305C561.989 152.805 562.789 152.405 563.789 152.405C567.489 152.405 591.989 130.805 591.989 127.605C591.989 127.105 592.889 125.905 593.889 124.905C594.989 124.005 597.389 120.205 599.189 116.505L602.489 109.905L602.389 94.1047C602.389 83.4047 601.989 78.0047 601.189 77.2047C600.489 76.5047 599.989 75.4047 599.989 74.6047C599.989 71.1047 581.589 48.1047 577.889 46.9047C576.889 46.5047 574.689 44.9047 572.889 43.3047C571.089 41.6047 568.289 39.6047 566.589 38.7047C564.889 37.8047 561.289 35.4047 558.489 33.4047C555.789 31.4047 551.489 28.6047 548.989 27.3047C546.489 26.0047 544.289 24.7047 543.989 24.4047C543.689 24.1047 542.389 23.4047 540.989 22.8047C539.589 22.1047 535.989 20.5047 532.989 19.1047C527.089 16.3047 516.889 12.8047 504.989 9.4047C500.889 8.2047 496.489 6.8047 495.189 6.3047C493.889 5.8047 491.589 5.4047 490.089 5.4047C488.489 5.4047 485.289 4.7047 482.989 3.9047C480.689 3.1047 476.689 2.4047 474.089 2.4047C471.589 2.4047 467.889 1.9047 465.989 1.3047C460.789 -0.295297 433.589 -0.495297 415.989 1.1047Z" fill="#163A9A"/>
</g>
<g id="logo-part-2">
<path id="Vector_2" d="M653.789 166.605C652.889 168.405 651.189 172.005 650.089 174.505C648.989 177.005 647.389 179.705 646.489 180.405C645.689 181.105 644.989 182.105 644.989 182.605C644.989 183.805 638.889 192.805 637.789 193.205C637.389 193.405 636.989 194.105 636.989 194.705C636.989 196.505 619.089 214.505 613.789 218.205C611.289 219.905 608.989 221.705 608.789 222.205C608.389 223.305 595.889 232.505 593.489 233.505C592.389 234.005 589.689 235.705 587.489 237.305C585.289 239.005 579.889 242.205 575.489 244.405C571.089 246.705 566.789 249.105 565.989 249.805C563.789 251.605 556.289 255.105 549.489 257.405C542.089 260.005 539.289 261.305 535.789 263.605C534.389 264.605 532.289 265.405 531.289 265.405C530.189 265.405 528.489 266.105 527.389 266.905C526.389 267.705 524.789 268.405 523.889 268.405C521.789 268.405 512.489 271.205 508.289 273.005C506.589 273.805 503.789 274.705 502.089 275.005C500.389 275.405 498.689 276.105 498.389 276.505C498.089 277.005 496.589 277.405 494.989 277.405C493.389 277.405 489.489 278.105 486.289 278.905C483.189 279.705 478.989 280.405 476.989 280.405C475.089 280.405 472.189 281.105 470.589 281.905C468.689 282.905 464.789 283.405 458.789 283.405C453.889 283.405 448.989 283.805 447.989 284.405C446.989 284.905 439.989 285.505 432.489 285.605C424.989 285.705 418.689 286.105 418.389 286.605C417.589 287.805 414.289 287.605 411.989 286.205C410.389 285.205 409.689 285.305 407.489 287.405C403.989 290.705 404.189 295.705 407.989 303.105C409.689 306.205 410.989 309.305 410.989 309.905C410.989 310.905 416.889 322.205 421.189 329.405C424.489 335.005 443.789 358.105 449.889 363.605C457.989 371.005 481.189 386.405 484.289 386.405C485.289 386.405 487.689 387.405 496.189 391.605C497.189 392.005 499.489 392.405 501.389 392.405C503.289 392.405 505.089 392.805 505.389 393.305C507.089 395.905 532.189 397.805 543.489 396.005C546.289 395.605 550.489 395.105 552.989 394.805C557.689 394.305 558.689 394.005 566.289 390.505C568.889 389.405 571.889 388.405 572.989 388.405C573.989 388.405 575.189 387.905 575.489 387.405C575.789 386.805 576.889 386.405 577.789 386.405C578.689 386.405 580.589 385.505 581.989 384.405C583.389 383.305 585.089 382.405 585.789 382.405C586.489 382.405 587.989 381.505 589.189 380.405C590.289 379.405 592.689 377.805 594.489 377.005C600.089 374.305 612.189 363.405 622.189 352.005C627.589 345.905 631.989 340.405 631.989 339.805C631.989 339.205 632.889 337.905 633.989 336.905C635.089 335.905 635.989 334.505 635.989 333.905C635.989 333.205 636.689 332.105 637.489 331.405C638.889 330.205 639.989 328.405 644.089 320.205C645.089 318.205 646.389 316.205 646.989 315.905C647.489 315.605 647.989 314.605 647.989 313.805C647.989 313.005 649.789 308.705 651.989 304.205C654.189 299.605 655.989 295.205 655.989 294.305C655.989 293.405 656.289 292.405 656.589 292.105C658.189 290.505 661.989 279.605 661.989 276.705C661.989 275.005 662.389 273.305 662.889 273.005C663.389 272.705 663.989 270.705 664.289 268.705C664.589 266.605 665.389 262.405 665.989 259.405C668.489 246.905 669.089 241.105 669.889 225.405C670.689 208.305 669.589 196.205 666.389 186.605C665.589 184.305 664.989 181.205 664.989 179.805C664.989 178.405 663.889 174.805 662.489 171.805C661.089 168.805 659.989 165.705 659.989 164.905C659.989 162.005 655.489 163.205 653.789 166.605Z" fill="#163A9A"/>
</g>
<g id="logo-part-3">
<path id="Vector_3" d="M203.289 220.105C201.689 223.405 201.489 226.705 201.589 246.905C201.689 261.505 202.189 271.705 202.989 274.905C203.689 277.605 204.589 283.705 204.989 288.405C205.689 296.805 208.089 307.205 209.989 310.605C210.589 311.605 210.989 313.705 210.989 315.305C210.989 317.005 211.489 318.605 211.989 318.905C212.589 319.205 212.989 320.605 212.989 321.905C212.989 323.205 213.489 324.605 213.989 324.905C214.589 325.205 214.989 326.605 214.989 327.905C214.989 329.205 215.489 330.605 215.989 330.905C216.589 331.205 216.989 332.405 216.989 333.405C216.989 334.505 217.889 336.905 218.989 338.905C220.089 340.905 220.989 343.305 220.989 344.305C220.989 345.305 221.689 346.705 222.489 347.405C223.389 348.105 224.589 350.105 225.389 351.805C226.089 353.505 227.789 357.405 229.089 360.405C230.289 363.405 232.189 366.805 233.189 368.005C234.189 369.105 234.989 370.405 234.989 370.805C234.989 371.205 236.189 373.405 237.789 375.705C239.289 378.005 240.989 380.705 241.489 381.505C245.389 387.705 252.189 397.405 253.089 397.905C253.589 398.305 254.489 399.705 254.989 401.005C255.489 402.305 257.089 403.905 258.489 404.405C259.889 404.905 260.989 406.005 260.989 406.705C260.989 407.505 261.889 408.905 262.989 409.905C264.089 410.905 264.989 412.105 264.989 412.705C264.989 414.005 279.089 428.405 280.489 428.405C281.089 428.405 284.189 431.105 287.489 434.405C290.789 437.705 293.889 440.405 294.389 440.405C294.989 440.405 297.089 442.005 299.089 444.005C301.089 446.005 303.689 448.105 304.689 448.805C305.689 449.405 308.089 450.805 309.889 451.905C311.689 453.005 315.989 455.705 319.389 458.005C328.889 464.205 354.389 476.405 357.889 476.405C358.789 476.405 359.989 476.805 360.489 477.205C361.489 478.105 367.989 480.205 377.989 482.805C380.989 483.605 384.889 484.705 386.489 485.305C390.589 486.605 402.689 488.505 413.489 489.405C418.489 489.905 424.789 490.505 427.689 490.905C430.489 491.305 435.389 491.305 438.489 490.905L444.189 490.205L440.789 488.405C438.989 487.505 434.989 486.305 431.989 485.905C428.989 485.505 425.589 484.605 424.489 483.905C423.389 483.205 420.889 482.405 418.989 482.105C411.689 480.905 407.289 479.705 401.989 477.205C398.989 475.705 394.289 473.605 391.489 472.405C388.789 471.205 385.589 469.805 384.489 469.305C383.389 468.805 380.389 467.105 377.689 465.605C375.089 464.105 370.589 461.605 367.689 460.005C364.889 458.505 360.089 455.305 357.289 453.005C354.389 450.805 350.189 447.505 347.889 445.905C342.189 441.805 321.989 422.305 321.989 420.905C321.989 420.305 320.189 418.005 317.989 415.905C315.789 413.805 313.989 411.505 313.989 410.905C313.989 410.305 312.689 408.505 310.989 406.905C309.389 405.305 307.989 403.505 307.989 402.805C307.989 402.205 307.289 401.105 306.489 400.405C305.589 399.705 303.989 397.105 302.989 394.805C301.889 392.405 300.589 390.205 299.989 389.905C299.489 389.605 297.089 385.505 294.889 380.805C292.589 376.205 290.089 371.905 289.389 371.305C288.589 370.705 287.989 369.505 287.989 368.705C287.989 367.905 286.689 364.505 285.089 361.105C283.489 357.705 281.189 351.705 279.889 347.905C278.689 344.005 277.389 340.005 276.889 338.905C276.489 337.805 275.589 335.105 274.889 332.905C274.289 330.705 273.389 328.105 272.889 327.205C272.389 326.205 271.989 323.605 271.989 321.505C271.989 319.305 271.589 317.305 271.089 317.005C270.089 316.305 269.289 312.205 267.989 301.405C267.489 297.305 266.889 291.405 266.489 288.405C266.189 285.405 265.389 282.005 264.889 280.905C264.389 279.805 263.889 274.405 263.789 268.905C263.489 259.705 263.289 258.905 261.289 257.805C259.989 257.205 258.189 256.105 257.289 255.205C256.289 254.405 252.989 252.605 249.889 251.105C246.889 249.605 243.289 247.305 241.989 245.905C240.689 244.505 239.089 243.405 238.489 243.405C237.889 243.405 236.089 242.005 234.489 240.405C232.889 238.705 231.189 237.405 230.689 237.405C228.689 237.405 214.989 225.705 214.989 224.005C214.989 222.205 208.689 216.405 206.689 216.405C205.789 216.405 204.289 218.105 203.289 220.105Z" fill="#163A9A"/>
</g>
<g id="logo-tcc">
<path id="Vector_4" d="M434.489 540.405C434.189 540.905 432.489 541.405 430.789 541.405C426.889 541.405 417.689 544.605 411.389 548.105C406.689 550.805 396.989 559.305 396.989 560.805C396.989 561.205 395.289 563.605 393.089 566.005C390.989 568.405 388.689 572.405 387.989 574.905C387.289 577.405 386.289 579.705 385.889 580.005C385.389 580.305 384.989 582.005 384.989 583.805C384.989 585.505 384.489 587.505 383.989 588.005C382.689 589.305 383.189 620.105 384.689 625.905C385.989 631.305 389.689 639.905 392.789 644.605C395.989 649.605 401.489 656.305 402.389 656.405C402.789 656.405 404.789 657.705 406.689 659.405C408.489 661.105 410.889 662.405 411.989 662.405C412.989 662.405 414.189 662.905 414.489 663.405C415.289 664.805 422.989 668.405 424.989 668.405C425.889 668.405 428.489 669.305 430.689 670.405C433.989 672.005 436.689 672.305 444.489 672.205C449.789 672.105 454.289 671.705 454.589 671.205C454.889 670.805 457.989 670.405 461.489 670.405C464.989 670.405 468.189 669.905 468.489 669.405C468.789 668.805 469.889 668.405 470.989 668.405C473.089 668.405 482.089 663.805 488.389 659.505C492.589 656.605 498.289 650.205 500.589 645.905C501.189 644.805 502.089 643.005 502.689 641.905C506.089 635.705 507.989 629.905 507.989 625.505C507.989 620.905 507.789 620.505 505.289 620.005C503.689 619.705 497.589 619.705 491.489 619.805C485.489 620.005 478.089 620.205 475.189 620.305C471.089 620.405 469.789 620.805 469.389 622.105C466.389 631.305 459.589 638.705 453.089 639.805C440.589 641.805 429.089 634.805 425.089 622.905C423.089 617.305 423.289 596.405 425.389 589.505C427.689 581.805 432.389 574.905 436.789 572.805C441.689 570.405 450.189 569.805 455.189 571.505C459.589 572.905 466.989 580.505 466.989 583.605C466.989 584.605 467.689 586.605 468.589 587.905L470.189 590.405H488.589C504.489 590.405 507.089 590.205 507.689 588.805C508.489 586.705 506.089 576.805 503.789 572.605C502.789 570.805 501.989 568.805 501.989 568.105C501.989 567.405 500.689 565.305 499.189 563.405C497.589 561.505 496.089 559.205 495.689 558.305C495.389 557.405 493.589 555.505 491.789 554.005C487.189 550.605 473.189 543.405 470.889 543.405C469.889 543.405 468.789 542.905 468.489 542.405C468.189 541.805 464.589 541.405 460.489 541.405C456.389 541.405 452.789 540.905 452.489 540.405C452.189 539.805 448.089 539.405 443.489 539.405C438.889 539.405 434.789 539.805 434.489 540.405Z" fill="#163A9A"/>
<path id="Vector_5" d="M570.989 541.105C569.089 541.405 567.089 542.005 566.589 542.505C565.989 543.005 564.189 543.405 562.389 543.405C558.689 543.405 552.889 545.605 551.089 547.705C550.489 548.505 548.589 549.405 546.989 549.705C543.189 550.505 533.689 560.005 528.389 568.405C524.689 574.205 523.189 577.705 519.889 589.005C518.689 593.005 518.689 616.905 519.889 620.805C520.389 622.505 521.389 625.905 521.989 628.405C524.489 637.705 530.189 647.605 537.089 654.405C542.989 660.205 552.689 666.505 555.589 666.405C556.089 666.405 558.489 667.305 560.789 668.405C562.989 669.505 565.589 670.405 566.389 670.405C567.189 670.405 568.189 670.805 568.489 671.405C568.889 672.005 575.089 672.405 583.889 672.405C596.589 672.405 599.189 672.105 602.789 670.405C604.989 669.305 607.889 668.405 609.189 668.305C610.489 668.305 612.889 667.405 614.489 666.405C616.189 665.305 619.489 663.405 621.989 662.005C629.589 657.905 635.289 651.005 638.989 641.405C643.289 630.005 644.989 624.505 644.389 622.905C643.689 621.305 637.489 620.505 624.489 620.405C607.889 620.205 606.889 620.605 604.089 626.605C602.189 630.805 595.689 637.705 591.289 640.205C588.589 641.605 579.389 641.805 578.489 640.405C578.189 639.805 576.789 639.405 575.589 639.405C571.289 639.405 564.189 630.205 561.089 620.505C559.689 616.105 559.689 601.505 561.089 593.905C563.089 582.805 570.089 572.405 575.489 572.405C576.789 572.405 578.189 571.905 578.489 571.405C580.289 568.505 595.989 572.405 599.189 576.705C600.989 579.005 604.389 585.705 605.289 588.505C605.789 589.905 608.389 590.305 623.289 590.905C632.889 591.305 641.289 591.305 641.889 591.005C645.789 588.605 639.789 568.505 632.889 560.605C631.289 558.805 629.989 556.905 629.989 556.405C629.989 555.205 619.589 548.405 617.689 548.405C616.789 548.405 615.789 547.905 615.489 547.305C612.789 543.005 586.389 539.305 570.989 541.105Z" fill="#163A9A"/>
<path id="Vector_6" d="M260.989 542.205C255.989 543.005 255.789 543.805 256.189 558.005C256.389 567.105 256.989 571.705 257.889 572.805C258.989 574.105 261.589 574.405 274.489 574.405C287.689 574.405 289.889 574.605 291.289 576.105C292.389 577.405 292.989 581.005 293.389 589.905C294.189 607.305 294.389 628.605 293.889 646.905C293.689 655.705 293.889 664.105 294.289 665.605L294.989 668.405H312.089C331.489 668.405 334.389 667.605 335.189 662.405C335.889 657.605 335.489 623.005 334.489 610.605C333.889 602.605 334.089 595.905 334.989 587.905L336.289 576.605L339.289 576.005C340.889 575.705 345.889 575.405 350.389 575.405C354.789 575.405 361.489 575.105 365.289 574.705L371.989 574.105V558.805V543.505L329.289 543.005C305.689 542.805 281.289 542.505 274.989 542.205C268.689 542.005 262.389 542.005 260.989 542.205Z" fill="#163A9A"/>
</g>
<g id="logo-iso">
<path id="Vector_7" d="M460.389 735.905C459.989 736.805 460.189 738.005 460.789 738.605C462.289 740.105 465.189 738.705 464.789 736.705C464.389 734.405 461.189 733.805 460.389 735.905Z" fill="#163A9A"/>
<path id="Vector_8" d="M97.6886 746.205C93.6886 750.305 93.0886 753.405 95.3886 757.905C96.8886 760.805 100.989 763.405 104.089 763.405C105.089 763.405 106.189 763.805 106.489 764.405C106.789 764.905 108.089 765.405 109.289 765.405C113.289 765.505 116.189 768.605 115.789 772.505C115.489 775.905 115.389 775.905 110.289 776.205C104.389 776.505 100.389 774.605 98.8886 770.705C97.8886 768.005 95.2886 767.905 93.6886 770.505C92.9886 771.605 93.1886 772.905 94.0886 774.905C95.4886 777.705 96.1886 778.205 101.289 780.305C102.789 780.905 105.089 781.905 106.489 782.605C108.289 783.405 109.689 783.405 111.289 782.705C112.489 782.105 114.889 781.105 116.489 780.305C122.089 777.805 122.989 776.505 122.989 770.905C122.989 766.605 122.589 765.405 120.289 763.305C116.189 759.805 113.389 758.405 110.089 758.405C108.389 758.405 106.789 757.905 106.489 757.405C106.189 756.805 104.989 756.405 103.989 756.405C101.689 756.405 100.389 752.805 102.089 750.805C102.989 749.705 104.889 749.405 108.889 749.605C113.589 749.905 114.689 750.305 115.489 752.105C117.489 756.805 122.689 755.405 121.489 750.505C120.089 745.105 115.189 742.405 106.989 742.405C101.789 742.405 101.089 742.705 97.6886 746.205Z" fill="#163A9A"/>
<path id="Vector_9" d="M142.489 743.405C142.189 743.905 140.589 744.405 139.089 744.405C136.989 744.405 135.489 745.405 133.389 748.105C128.789 754.205 127.989 756.305 127.989 763.005C127.989 769.505 128.789 772.005 132.389 776.205C135.689 780.005 139.789 781.405 147.489 781.405C154.189 781.405 154.889 781.205 158.789 777.805C161.489 775.505 162.989 773.405 162.989 771.905C162.989 770.605 163.489 769.205 163.989 768.905C165.389 768.105 165.289 761.105 163.789 756.005C162.289 750.605 156.489 744.405 152.889 744.405C151.389 744.405 149.789 743.905 149.489 743.405C149.189 742.805 147.589 742.405 145.989 742.405C144.389 742.405 142.789 742.805 142.489 743.405ZM154.789 753.005C157.589 756.305 157.989 757.405 157.989 762.505C157.989 765.705 157.589 768.605 156.989 768.905C156.489 769.205 155.989 770.405 155.989 771.405C155.989 773.905 150.689 776.405 145.389 776.405C141.689 776.405 140.689 775.905 138.089 772.705C135.389 769.405 134.989 768.205 134.989 762.905C134.989 755.505 136.289 752.405 140.389 750.205C145.389 747.405 150.789 748.505 154.789 753.005Z" fill="#163A9A"/>
<path id="Vector_10" d="M191.789 743.805C190.289 744.405 187.889 746.005 186.489 747.405C184.289 749.505 183.989 750.505 183.989 756.905C183.989 763.405 184.189 764.305 186.789 766.705C189.189 769.005 190.389 769.405 195.789 769.405C199.189 769.405 201.989 769.705 201.989 770.005C201.989 770.305 201.089 771.905 199.889 773.505C197.389 777.105 192.689 777.405 189.289 774.305C187.489 772.505 186.789 772.305 185.489 773.405C183.289 775.205 183.589 775.905 187.489 779.905C189.989 782.305 191.989 783.405 194.089 783.405C197.689 783.405 204.989 778.805 204.989 776.505C204.989 775.605 205.489 774.305 206.089 773.705C206.689 773.105 207.189 768.605 207.189 763.105C207.289 752.305 205.789 747.805 201.089 744.505C197.889 742.205 195.789 742.005 191.789 743.805ZM199.689 751.605C202.389 754.105 202.589 756.505 200.389 759.905C197.889 763.705 192.589 763.405 190.489 759.405C188.589 755.705 188.589 754.905 190.589 751.905C192.589 748.805 196.589 748.605 199.689 751.605Z" fill="#163A9A"/>
<path id="Vector_11" d="M216.289 745.905C212.089 749.505 211.789 750.205 210.389 762.805C209.989 765.405 210.189 768.605 210.789 769.805C211.289 770.905 212.489 773.505 213.289 775.405C214.989 779.205 222.289 784.305 223.489 782.405C223.789 781.905 225.389 781.405 226.889 781.405C230.389 781.405 234.989 776.705 234.989 773.205C234.989 771.705 235.489 770.205 235.989 769.905C236.589 769.605 236.989 766.005 236.989 761.905C236.989 757.805 236.589 754.205 235.989 753.905C235.489 753.605 234.989 752.505 234.989 751.505C234.989 749.705 231.189 745.805 227.289 743.605C223.589 741.605 220.589 742.205 216.289 745.905ZM227.889 752.305C229.589 754.705 229.989 756.705 229.989 763.605C229.989 773.805 228.289 776.705 222.889 776.205C219.989 775.905 219.289 775.405 218.289 772.405C216.689 767.705 216.689 757.205 218.289 754.305C220.589 749.905 221.089 749.405 223.489 749.405C224.989 749.405 226.589 750.505 227.889 752.305Z" fill="#163A9A"/>
<path id="Vector_12" d="M322.489 744.105C319.389 744.605 313.989 748.905 313.989 750.905C313.989 751.605 314.889 752.905 315.889 753.805C317.689 755.505 317.889 755.405 320.089 752.505C322.789 748.805 327.689 748.305 330.489 751.405C332.089 753.105 332.089 753.705 330.889 756.605C330.189 758.305 326.089 763.505 321.789 768.005C317.489 772.605 313.989 777.005 313.989 777.905C313.989 778.705 315.389 780.305 317.189 781.405C321.489 784.005 333.189 783.905 335.589 781.305C338.589 777.905 336.689 776.405 329.489 776.405C325.889 776.405 322.989 776.105 322.989 775.705C322.989 775.405 326.089 772.105 329.889 768.405C337.189 761.305 338.189 758.705 337.189 751.205C336.889 748.305 336.089 747.105 333.889 746.005C330.289 744.205 326.389 743.605 322.489 744.105Z" fill="#163A9A"/>
<path id="Vector_13" d="M348.089 745.905C343.289 750.005 341.989 753.705 341.989 763.005C341.989 767.605 342.489 771.605 342.989 771.905C343.589 772.205 343.989 773.305 343.989 774.305C343.989 776.705 351.189 783.405 353.789 783.405C356.889 783.405 360.889 781.205 364.389 777.605C367.089 774.705 367.289 774.005 367.389 765.205C367.589 751.705 363.989 745.305 355.289 744.005C351.789 743.505 350.689 743.805 348.089 745.905ZM359.089 752.405C360.289 754.005 361.189 757.505 361.589 761.905C362.389 770.905 360.189 775.705 355.089 776.205C353.289 776.405 351.289 776.105 350.589 775.505C348.489 773.805 346.389 760.605 347.789 758.305C348.489 757.305 348.989 756.005 348.989 755.405C348.989 754.805 349.689 753.205 350.589 751.805C352.689 748.605 356.589 748.905 359.089 752.405Z" fill="#163A9A"/>
<path id="Vector_14" d="M10.0886 747.305C8.88861 748.905 7.98861 751.205 7.98861 752.305C7.98861 753.505 7.58861 755.305 6.98861 756.405C6.48861 757.505 5.58861 759.305 4.98861 760.405C4.48861 761.505 3.98861 763.005 3.98861 763.905C3.98861 764.705 3.08861 766.905 1.98861 768.905C-0.0113874 772.405 -0.611388 777.405 0.688612 778.705C1.58861 779.605 6.98861 774.405 6.98861 772.705C6.98861 771.605 8.68861 771.405 14.6886 771.605C21.5886 771.905 22.5886 772.105 23.5886 774.205C24.1886 775.405 25.7886 777.605 26.9886 778.905C29.1886 781.305 29.4886 781.305 31.1886 779.705C32.4886 778.605 32.6886 777.705 31.9886 777.005C31.4886 776.505 30.9886 775.205 30.9886 774.205C30.9886 773.305 30.0886 770.905 28.9886 768.905C27.8886 766.905 26.9886 764.705 26.9886 764.005C26.9886 763.205 25.6886 760.005 23.9886 756.905C22.3886 753.805 20.9886 750.405 20.9886 749.505C20.9886 747.005 17.7886 744.405 14.6886 744.405C12.9886 744.405 11.3886 745.405 10.0886 747.305ZM16.7886 757.405C18.6886 763.505 18.3886 764.405 14.9886 764.405C11.6886 764.405 10.0886 762.205 11.7886 760.105C12.2886 759.505 12.9886 757.705 13.3886 756.105C14.2886 752.305 15.2886 752.705 16.7886 757.405Z" fill="#163A9A"/>
<path id="Vector_15" d="M81.6886 746.205C80.2886 747.805 79.9886 750.305 79.9886 763.105C79.9886 776.705 80.1886 778.305 81.9886 779.905C82.9886 780.805 84.5886 781.405 85.4886 781.105C86.7886 780.605 86.9886 778.005 86.9886 764.705C86.9886 751.105 86.6886 748.605 85.1886 746.605C83.4886 744.305 83.3886 744.305 81.6886 746.205Z" fill="#163A9A"/>
<path id="Vector_16" d="M244.889 747.105C240.589 752.105 239.989 754.005 239.989 763.805V773.105L243.789 777.105C249.089 782.805 251.689 783.605 256.489 781.305C263.889 777.805 264.989 775.405 264.989 763.205V752.405L261.389 748.405C257.989 744.705 257.389 744.405 252.589 744.405C248.189 744.405 246.989 744.805 244.889 747.105ZM257.089 751.405C258.989 755.305 260.189 761.505 259.589 764.605C259.189 766.405 258.589 769.405 258.289 771.205C257.689 774.905 254.389 777.605 251.489 776.805C248.389 776.005 246.989 771.705 246.989 762.705C246.989 752.505 248.589 749.105 253.289 749.605C254.889 749.805 256.589 750.605 257.089 751.405Z" fill="#163A9A"/>
<path id="Vector_17" d="M278.789 748.305C275.589 750.705 273.989 752.605 273.989 754.105C273.989 756.905 275.689 757.905 277.489 756.405C278.289 755.705 279.689 755.405 280.489 755.805C281.689 756.205 281.989 758.305 281.989 766.205C281.989 774.505 282.289 776.405 283.789 777.705C284.789 778.705 285.989 779.105 286.289 778.705C286.689 778.405 286.989 771.205 286.989 762.905C286.989 749.705 286.789 747.505 285.289 746.205C283.689 744.905 283.089 745.105 278.789 748.305Z" fill="#163A9A"/>
<path id="Vector_18" d="M375.089 747.405C371.589 750.905 370.389 757.705 371.289 768.105C371.989 775.405 374.289 779.405 379.189 781.805C383.589 784.005 385.789 783.805 389.689 780.805C396.989 775.305 398.189 770.305 395.689 755.905C394.589 749.705 394.089 748.705 391.089 746.705C388.689 745.105 386.189 744.405 382.889 744.405C378.989 744.405 377.589 744.905 375.089 747.405ZM388.489 752.405C389.489 754.405 389.989 758.205 389.989 764.405C389.989 772.105 389.689 773.705 387.989 775.405C384.589 778.805 378.989 777.205 378.989 772.905C378.989 771.605 378.589 770.205 377.989 769.905C376.589 769.005 376.789 757.105 378.289 754.305C380.589 749.805 381.089 749.405 383.989 749.405C386.289 749.405 387.289 750.105 388.489 752.405Z" fill="#163A9A"/>
<path id="Vector_19" d="M404.589 747.705C401.789 751.405 401.189 756.205 403.189 759.405C404.189 761.005 404.089 761.705 402.189 763.705C398.789 767.305 399.189 774.005 402.889 778.405C405.589 781.705 406.089 781.905 412.289 781.905C418.189 781.905 419.189 781.605 421.889 779.005C424.689 776.405 424.989 775.405 424.989 770.305C424.989 767.105 424.489 764.205 423.889 763.805C423.089 763.405 422.989 761.205 423.389 757.405C423.989 751.905 423.889 751.405 420.889 748.005C418.089 744.705 417.289 744.405 412.389 744.405C407.589 744.405 406.889 744.705 404.589 747.705ZM416.789 750.605C419.689 753.505 417.489 758.405 413.289 758.405C410.089 758.405 407.489 754.205 408.989 751.505C410.189 749.105 414.789 748.605 416.789 750.605ZM417.989 767.405C419.789 770.805 418.789 775.405 415.889 777.105C413.389 778.605 413.089 778.605 410.089 776.505C407.689 774.805 406.989 773.505 406.989 771.005C406.989 766.805 408.589 765.405 413.189 765.405C415.889 765.405 417.189 765.905 417.989 767.405Z" fill="#163A9A"/>
<path id="Vector_20" d="M450.389 748.205C447.289 750.905 445.889 753.105 445.089 756.605C443.689 762.405 443.689 767.105 444.989 767.905C445.589 768.205 445.989 769.805 445.989 771.305C445.989 774.605 452.489 781.405 455.689 781.405C456.889 781.405 458.189 781.805 458.489 782.405C458.789 782.905 460.389 783.405 461.989 783.405C463.589 783.405 465.189 782.905 465.489 782.405C465.789 781.805 467.089 781.405 468.189 781.405C471.489 781.405 476.989 776.705 476.989 773.805C476.989 769.705 474.289 769.705 469.989 773.905L466.089 777.705L460.289 776.805C454.989 776.005 454.289 775.605 452.789 772.405C450.289 767.205 450.389 757.405 453.089 754.005C457.889 747.905 464.589 747.305 469.589 752.505C472.689 755.705 474.189 756.105 475.889 754.005C476.889 752.805 476.389 751.705 473.389 748.505L469.789 744.405H462.089C454.689 744.505 454.389 744.605 450.389 748.205Z" fill="#163A9A"/>
<path id="Vector_21" d="M559.189 745.605C558.489 746.305 557.989 747.705 557.989 748.705C557.989 749.705 557.089 751.905 555.889 753.505C553.889 756.405 553.889 756.505 555.589 759.205C556.989 761.305 557.489 764.105 557.689 771.405C557.789 776.605 557.889 781.205 557.889 781.605C558.089 783.205 560.989 782.305 561.989 780.505C562.489 779.405 562.989 774.505 562.989 769.505C562.989 761.505 563.189 760.305 564.989 759.405C566.089 758.805 566.989 757.705 566.989 756.905C566.989 756.105 566.089 755.005 564.989 754.405C562.189 752.905 562.489 750.505 565.489 749.405C567.689 748.605 567.889 748.105 566.989 746.405C565.789 744.105 561.089 743.705 559.189 745.605Z" fill="#163A9A"/>
<path id="Vector_22" d="M662.789 746.005C659.089 748.005 653.989 754.405 653.989 757.105C653.989 758.305 653.589 759.605 652.989 759.905C651.789 760.705 651.689 767.805 652.889 770.205C653.389 771.105 654.389 773.205 655.089 774.905C657.089 779.405 659.089 781.405 661.589 781.405C662.889 781.405 664.189 781.805 664.489 782.405C665.389 783.805 674.589 783.605 677.289 782.205C678.489 781.505 681.189 779.405 683.189 777.505C686.689 774.205 686.889 773.905 685.289 772.205C683.089 769.705 681.089 769.905 679.989 772.805C678.489 776.905 671.189 779.605 667.189 777.505C666.289 777.005 664.789 776.305 663.889 776.005C662.989 775.805 661.489 774.105 660.589 772.305C657.289 765.705 659.489 754.205 664.689 751.205C667.889 749.305 672.589 748.905 673.489 750.405C673.789 750.905 674.889 751.405 675.789 751.405C676.789 751.405 677.989 752.405 678.489 753.605C679.689 756.305 682.789 756.605 684.389 754.205C685.189 752.805 684.889 751.905 682.989 749.905C681.689 748.505 679.289 746.705 677.589 745.905C673.989 744.105 666.389 744.105 662.789 746.005Z" fill="#163A9A"/>
<path id="Vector_23" d="M546.589 747.305C546.189 747.805 546.389 748.505 546.889 748.805C547.389 749.205 548.089 749.005 548.389 748.505C548.789 748.005 548.589 747.305 548.089 747.005C547.589 746.605 546.889 746.805 546.589 747.305Z" fill="#163A9A"/>
<path id="Vector_24" d="M628.689 747.005C628.289 747.405 627.989 749.405 627.989 751.505V755.205L621.589 755.905C617.489 756.305 614.689 757.105 613.789 758.205C608.689 764.405 608.089 773.905 612.689 778.605C615.189 781.205 615.889 781.405 623.689 781.405C631.489 781.405 632.089 781.205 632.789 779.105C633.189 777.905 633.289 770.205 632.989 761.905C632.589 749.405 632.189 746.905 630.989 746.605C630.089 746.505 629.089 746.605 628.689 747.005ZM625.789 761.605C628.589 764.705 629.389 768.605 628.089 772.605C626.589 777.205 623.689 778.905 619.989 777.305C617.789 776.305 616.989 775.005 615.989 770.805C614.789 766.005 614.889 765.405 616.889 762.505C619.589 758.805 622.789 758.505 625.789 761.605Z" fill="#163A9A"/>
<path id="Vector_25" d="M531.189 748.605C530.689 749.305 529.989 750.805 529.789 751.905C529.489 753.705 528.589 753.905 521.989 754.205C517.889 754.405 513.989 755.005 513.289 755.605C511.489 757.105 511.489 778.205 513.389 780.605C514.089 781.605 515.089 782.405 515.589 782.405C517.489 782.405 518.989 776.705 518.989 769.805C518.989 765.805 519.289 762.305 519.789 762.105C520.189 761.805 522.589 761.305 525.289 761.005L529.989 760.305V768.205C529.989 777.505 532.489 782.705 537.289 783.205C540.989 783.605 541.889 781.005 539.089 778.005C537.289 776.105 536.989 774.505 536.989 768.105C536.989 762.705 537.489 759.605 538.589 757.905C539.889 756.005 539.889 755.405 538.789 754.705C537.989 754.305 536.789 752.405 536.089 750.605C534.689 747.305 532.989 746.505 531.189 748.605Z" fill="#163A9A"/>
<path id="Vector_26" d="M45.4886 753.305C44.8886 753.805 42.6886 754.405 40.4886 754.605L36.5886 754.905L35.1886 764.305C34.2886 770.905 34.1886 774.005 34.9886 774.805C35.4886 775.305 35.9886 776.605 35.9886 777.705C35.9886 779.005 36.5886 779.505 38.2886 779.205C39.8886 779.005 40.5886 778.205 40.6886 775.905C41.1886 770.705 43.1886 762.005 44.1886 760.605C44.7886 760.005 46.6886 759.405 48.4886 759.405C52.0886 759.405 52.2886 759.705 53.7886 772.905C54.3886 778.005 54.7886 778.905 56.4886 778.905C58.2886 778.905 58.4886 778.105 58.7886 768.805L59.0886 758.605L55.2886 755.505C51.5886 752.405 47.2886 751.505 45.4886 753.305Z" fill="#163A9A"/>
<path id="Vector_27" d="M487.989 755.905C483.389 758.505 481.989 761.405 481.989 768.905C481.989 775.805 482.089 776.105 485.789 779.705C488.989 782.805 490.289 783.405 493.889 783.405C498.889 783.405 504.489 780.405 505.589 777.205C506.589 774.005 504.089 773.205 500.389 775.505C495.389 778.505 488.989 777.505 488.989 773.505C488.989 772.005 490.189 771.605 497.189 771.005C501.589 770.605 505.689 770.105 506.189 769.805C506.589 769.505 506.989 767.505 506.989 765.405C506.989 762.205 506.289 760.805 503.489 757.905C500.389 754.805 499.289 754.405 495.189 754.505C492.589 754.605 489.389 755.205 487.989 755.905ZM498.389 761.305C500.889 764.105 499.589 765.405 494.489 765.405C489.189 765.405 487.889 763.805 491.089 761.305C494.189 758.905 496.289 758.905 498.389 761.305Z" fill="#163A9A"/>
<path id="Vector_28" d="M544.689 755.005C544.289 755.405 543.989 761.705 543.989 769.105C543.989 780.305 544.289 782.605 545.589 783.105C546.389 783.405 547.689 783.105 548.289 782.505C549.789 781.005 550.489 763.105 549.289 758.405C548.389 755.105 546.189 753.505 544.689 755.005Z" fill="#163A9A"/>
<path id="Vector_29" d="M571.089 755.705C570.389 756.405 569.989 761.205 569.989 768.605C569.989 778.705 570.189 780.605 571.689 781.105C572.689 781.505 573.989 780.905 575.189 779.505C576.589 777.605 576.989 775.505 576.989 768.805C576.989 758.105 574.389 752.405 571.089 755.705Z" fill="#163A9A"/>
<path id="Vector_30" d="M589.989 755.305C589.189 755.705 587.189 756.805 585.589 757.605C582.689 759.205 580.089 765.005 579.989 770.005C579.989 772.805 582.389 777.505 585.189 780.205C588.089 782.805 595.989 783.805 599.689 781.905C603.189 780.105 605.489 776.505 604.089 775.105C603.289 774.305 601.889 774.605 598.889 776.205C596.689 777.405 593.989 778.405 593.089 778.405C590.889 778.405 586.589 773.905 587.489 772.505C587.789 771.805 591.589 771.405 596.389 771.405C601.389 771.405 605.089 770.905 605.789 770.205C607.489 768.505 607.289 765.605 605.189 762.605C604.189 761.105 602.989 759.105 602.689 758.105C602.289 757.205 601.189 756.405 600.089 756.405C598.989 756.405 597.789 755.905 597.489 755.405C596.789 754.205 592.189 754.205 589.989 755.305ZM596.489 760.605C600.189 762.305 598.989 763.905 593.689 764.205C589.989 764.405 588.989 764.205 588.989 763.005C588.989 761.605 591.489 759.505 593.189 759.405C593.589 759.405 595.089 759.905 596.489 760.605Z" fill="#163A9A"/>
<path id="Vector_31" d="M301.989 757.005C301.989 757.905 302.489 758.405 303.189 758.205C304.989 757.605 305.289 755.405 303.589 755.405C302.689 755.405 301.989 756.105 301.989 757.005Z" fill="#163A9A"/>
<path id="Vector_32" d="M693.989 759.105C690.089 762.505 689.989 762.805 689.989 769.305C689.989 775.705 690.189 776.105 693.789 779.705C697.289 783.205 697.989 783.405 703.689 783.405C709.689 783.405 709.889 783.305 713.489 779.105C716.489 775.705 716.989 774.305 716.589 771.905C716.289 770.205 715.789 767.205 715.389 765.105C714.589 760.105 710.189 756.905 703.189 756.105C698.189 755.505 697.689 755.705 693.989 759.105ZM705.989 761.005C709.989 762.405 711.189 771.605 707.889 775.805C705.389 779.005 701.889 779.205 697.889 776.305C695.489 774.705 694.989 773.505 694.989 770.405C694.989 767.205 695.689 765.805 698.589 762.905C700.589 760.905 702.689 759.505 703.289 759.805C703.989 760.105 705.189 760.605 705.989 761.005Z" fill="#163A9A"/>
<path id="Vector_33" d="M730.689 756.105C730.289 756.405 727.889 756.805 725.289 756.805L720.489 756.905L720.189 768.305C719.989 778.005 720.189 780.005 721.689 781.605C723.389 783.505 723.489 783.505 725.189 781.405C726.589 779.705 726.989 777.305 726.989 771.505C726.989 767.305 727.389 763.305 727.889 762.605C728.389 761.805 730.089 761.405 732.089 761.605L735.489 761.905L735.989 771.005C736.589 781.505 737.989 784.605 741.089 781.805C742.689 780.405 742.989 778.605 742.989 771.905C742.989 762.805 743.789 761.405 748.589 761.405C751.689 761.405 751.789 761.505 752.389 766.605C753.489 777.605 754.489 782.905 755.489 782.705C758.189 782.105 757.889 760.505 755.089 758.005C752.489 755.605 748.489 755.105 747.089 756.805C745.389 758.805 742.089 758.805 738.389 756.905C735.389 755.305 731.789 754.905 730.689 756.105Z" fill="#163A9A"/>
<path id="Vector_34" d="M771.489 757.405C771.189 757.905 769.989 758.405 768.989 758.405C764.889 758.405 763.989 761.905 763.989 777.705C763.989 790.105 764.289 792.605 765.489 793.105C767.989 794.005 770.989 790.505 770.989 786.705V783.405H777.489C783.389 783.405 784.089 783.205 784.889 781.105C785.389 779.805 786.489 778.205 787.389 777.505C789.489 775.705 789.389 768.005 787.189 763.505C786.289 761.605 784.189 759.305 782.489 758.305C779.189 756.405 772.489 755.805 771.489 757.405ZM780.789 762.605C782.789 764.605 782.289 775.405 780.289 777.005C777.589 779.005 773.889 778.705 771.289 776.205C766.389 771.605 769.889 761.405 776.389 761.405C778.089 761.405 780.089 761.905 780.789 762.605Z" fill="#163A9A"/>
<path id="Vector_35" d="M796.689 758.205C794.989 759.005 793.989 760.205 794.189 761.205C794.589 763.205 798.789 764.005 800.289 762.505C801.889 760.905 807.489 761.105 808.889 762.805C809.789 763.905 809.789 764.405 808.789 765.105C805.189 767.405 802.489 768.405 800.089 768.405C797.089 768.405 791.989 772.905 791.989 775.605C791.989 776.405 792.689 778.505 793.589 780.205L795.089 783.405H804.589H813.989L815.489 779.805C817.189 775.605 817.489 770.805 815.989 769.905C815.489 769.605 814.989 767.105 814.989 764.505C814.989 757.905 813.089 756.305 805.389 756.605C802.089 756.705 798.189 757.405 796.689 758.205ZM808.789 776.305C807.889 777.805 806.489 778.405 803.789 778.405C797.089 778.405 797.989 773.805 804.789 773.205C809.489 772.805 810.489 773.605 808.789 776.305Z" fill="#163A9A"/>
<path id="Vector_36" d="M825.289 757.305C823.489 758.705 821.989 762.605 821.989 766.105C822.089 771.205 824.289 780.405 825.489 780.705C826.089 780.805 826.589 778.105 826.789 774.605C827.189 766.005 829.489 762.005 834.189 761.605C837.589 761.305 837.789 761.505 838.389 765.105C838.789 767.205 839.389 771.405 839.689 774.405C840.189 780.205 842.589 784.205 844.389 782.405C844.889 781.905 845.289 777.205 845.189 771.705C844.989 762.605 844.789 761.805 842.289 759.105C839.789 756.505 838.989 756.305 832.789 756.505C829.089 756.605 825.789 757.005 825.289 757.305Z" fill="#163A9A"/>
<path id="Vector_37" d="M850.389 759.805C850.089 760.505 850.789 762.805 851.889 764.805C853.089 766.805 853.989 769.605 853.989 770.905C853.989 772.205 854.889 774.905 855.989 776.905C858.589 781.505 858.489 785.205 855.889 788.005C853.089 791.005 853.989 793.605 857.689 793.205C859.689 793.005 860.589 792.205 860.989 790.405C861.289 789.005 862.689 786.005 864.289 783.705C865.789 781.305 866.989 778.605 866.989 777.505C866.989 776.405 867.489 775.205 867.989 774.905C868.589 774.605 868.989 772.805 868.989 770.905C868.989 769.005 869.489 767.205 869.989 766.905C871.089 766.205 871.389 762.105 870.289 761.105C869.289 760.005 865.989 763.505 865.989 765.605C865.989 766.605 864.989 768.805 863.789 770.405L861.589 773.405L859.089 767.505C857.589 764.305 855.789 760.905 855.089 760.005C853.489 758.005 851.089 757.905 850.389 759.805Z" fill="#163A9A"/>
<path id="Vector_38" d="M302.689 777.005C301.789 778.005 302.889 779.405 304.589 779.405C305.389 779.405 305.989 778.705 305.989 777.905C305.989 776.405 303.889 775.805 302.689 777.005Z" fill="#163A9A"/>
</g>
</g>
</svg>
